<svg width="14" height="12" viewBox="0 0 14 12" fill="none" xmlns="http://www.w3.org/2000/svg">
<path d="M13.9816 3.36282C13.9534 3.28753 13.8953 3.22756 13.8212 3.19743L12.5772 2.69151C12.5 2.2864 12.1947 1.96196 11.8019 1.85967L11.7348 1.08044C11.725 0.966422 11.6491 0.869094 11.5414 0.832537C11.4338 0.796011 11.315 0.827196 11.2387 0.911985L10.9195 1.26698L10.7221 0.570812C10.6881 0.450808 10.5812 0.366562 10.4574 0.362244C10.3329 0.357798 10.2212 0.434464 10.1791 0.551845L8.70464 4.65203C8.70464 4.65203 3.24314 4.90903 3.24085 4.90915C2.12093 4.97699 1.05993 4.37294 0.538549 3.37012C0.465286 3.22932 0.292709 3.17495 0.153067 3.24877C0.0133626 3.32259 -0.0405141 3.49655 0.0326858 3.63734C0.498792 4.53385 1.32433 5.16458 2.27091 5.39422C2.17265 5.50965 1.96152 5.79575 1.83806 6.24554C1.70381 6.73461 1.65543 7.51425 2.14904 8.50422L1.34844 9.60037C1.30167 9.66437 1.28327 9.74504 1.29758 9.82324L1.64994 11.7493C1.67491 11.8858 1.79304 11.9849 1.93078 11.9849H2.2897C2.37438 11.9849 2.45469 11.947 2.50898 11.8815C2.56324 11.8159 2.58583 11.7295 2.57066 11.6455L2.34754 10.41L4.70825 8.62365C4.7124 8.62048 4.70425 8.62707 4.70825 8.62365C4.93397 8.43254 5.09782 8.22206 5.21503 8.00565C6.4454 8.2234 8.12919 8.51804 9.20841 8.69324L9.6839 11.7418C9.70577 11.8818 9.82542 11.9849 9.96601 11.9849H10.2613C10.4191 11.9849 10.5469 11.856 10.5469 11.6971V8.60247C10.815 8.41792 10.9108 8.10928 10.9744 7.807C10.9764 7.7975 11.6097 4.85117 11.6097 4.85117C11.729 4.87122 11.8496 4.88174 11.971 4.88174C12.8073 4.88174 13.5731 4.3882 13.9695 3.59372C14.0054 3.52188 14.0098 3.43815 13.9816 3.36282Z" fill="white"/>
</svg>
