<svg width="14" height="9" viewBox="0 0 14 9" fill="none" xmlns="http://www.w3.org/2000/svg">
<path d="M13.3359 4.04688C13.4297 4.23438 13.5 4.42188 13.5 4.60938C13.5 4.82031 13.4297 5.00781 13.3359 5.17188C12.6562 6.32031 11.7422 7.23438 10.5938 7.89062C9.42188 8.59375 8.13281 8.92188 6.75 8.92188C5.34375 8.92188 4.07812 8.59375 2.90625 7.89062C1.73438 7.23438 0.820312 6.32031 0.164062 5.17188C0.046875 5.00781 0 4.82031 0 4.60938C0 4.42188 0.046875 4.23438 0.164062 4.04688C0.820312 2.92188 1.73438 2.00781 2.90625 1.32812C4.07812 0.648438 5.34375 0.296875 6.75 0.296875C8.13281 0.296875 9.42188 0.648438 10.5938 1.32812C11.7422 2.00781 12.6562 2.92188 13.3359 4.04688ZM6.75 7.79688C7.3125 7.79688 7.85156 7.65625 8.34375 7.375C8.8125 7.09375 9.21094 6.69531 9.49219 6.20312C9.77344 5.73438 9.9375 5.19531 9.9375 4.60938C9.9375 4.04688 9.77344 3.50781 9.49219 3.01562C9.21094 2.54688 8.8125 2.14844 8.34375 1.86719C7.85156 1.58594 7.3125 1.42188 6.75 1.42188C6.16406 1.42188 5.625 1.58594 5.15625 1.86719C4.66406 2.14844 4.26562 2.54688 3.98438 3.01562C3.70312 3.50781 3.5625 4.04688 3.5625 4.60938C3.5625 5.19531 3.70312 5.73438 3.98438 6.20312C4.26562 6.69531 4.66406 7.09375 5.15625 7.375C5.625 7.65625 6.16406 7.79688 6.75 7.79688ZM9.1875 4.60938C9.1875 3.95312 8.92969 3.36719 8.46094 2.89844C7.99219 2.42969 7.40625 2.17188 6.75 2.17188C6.32812 2.17188 5.95312 2.26562 5.60156 2.45312C5.88281 2.45312 6.11719 2.57031 6.30469 2.75781C6.49219 2.94531 6.60938 3.17969 6.60938 3.46094C6.60938 3.74219 6.49219 4 6.30469 4.1875C6.11719 4.375 5.88281 4.46875 5.60156 4.46875C5.32031 4.46875 5.0625 4.375 4.875 4.1875C4.6875 4 4.59375 3.74219 4.59375 3.46094C4.40625 3.83594 4.3125 4.21094 4.3125 4.60938C4.3125 5.28906 4.54688 5.875 5.01562 6.34375C5.48438 6.8125 6.07031 7.04688 6.75 7.04688C7.40625 7.04688 7.99219 6.8125 8.46094 6.34375C8.92969 5.875 9.1875 5.28906 9.1875 4.60938Z" fill="white"/>
</svg>
