<svg width="169" height="17" viewBox="0 0 169 17" fill="none" xmlns="http://www.w3.org/2000/svg">
<path d="M13.3359 8.9375C13.4297 9.125 13.5 9.3125 13.5 9.5C13.5 9.71094 13.4297 9.89844 13.3359 10.0625C12.6562 11.2109 11.7422 12.125 10.5938 12.7812C9.42188 13.4844 8.13281 13.8125 6.75 13.8125C5.34375 13.8125 4.07812 13.4844 2.90625 12.7812C1.73438 12.125 0.820312 11.2109 0.164062 10.0625C0.046875 9.89844 0 9.71094 0 9.5C0 9.3125 0.046875 9.125 0.164062 8.9375C0.820312 7.8125 1.73438 6.89844 2.90625 6.21875C4.07812 5.53906 5.34375 5.1875 6.75 5.1875C8.13281 5.1875 9.42188 5.53906 10.5938 6.21875C11.7422 6.89844 12.6562 7.8125 13.3359 8.9375ZM6.75 12.6875C7.3125 12.6875 7.85156 12.5469 8.34375 12.2656C8.8125 11.9844 9.21094 11.5859 9.49219 11.0938C9.77344 10.625 9.9375 10.0859 9.9375 9.5C9.9375 8.9375 9.77344 8.39844 9.49219 7.90625C9.21094 7.4375 8.8125 7.03906 8.34375 6.75781C7.85156 6.47656 7.3125 6.3125 6.75 6.3125C6.16406 6.3125 5.625 6.47656 5.15625 6.75781C4.66406 7.03906 4.26562 7.4375 3.98438 7.90625C3.70312 8.39844 3.5625 8.9375 3.5625 9.5C3.5625 10.0859 3.70312 10.625 3.98438 11.0938C4.26562 11.5859 4.66406 11.9844 5.15625 12.2656C5.625 12.5469 6.16406 12.6875 6.75 12.6875ZM9.1875 9.5C9.1875 8.84375 8.92969 8.25781 8.46094 7.78906C7.99219 7.32031 7.40625 7.0625 6.75 7.0625C6.32812 7.0625 5.95312 7.15625 5.60156 7.34375C5.88281 7.34375 6.11719 7.46094 6.30469 7.64844C6.49219 7.83594 6.60938 8.07031 6.60938 8.35156C6.60938 8.63281 6.49219 8.89062 6.30469 9.07812C6.11719 9.26562 5.88281 9.35938 5.60156 9.35938C5.32031 9.35938 5.0625 9.26562 4.875 9.07812C4.6875 8.89062 4.59375 8.63281 4.59375 8.35156C4.40625 8.72656 4.3125 9.10156 4.3125 9.5C4.3125 10.1797 4.54688 10.7656 5.01562 11.2344C5.48438 11.7031 6.07031 11.9375 6.75 11.9375C7.40625 11.9375 7.99219 11.7031 8.46094 11.2344C8.92969 10.7656 9.1875 10.1797 9.1875 9.5Z" fill="white"/>
<path d="M24.76 10.89H23.48V13H22.56V10.89H19.19V10.47L22.81 5.9H23.48V10.11H24.76V10.89ZM22.56 8.08L22.65 7.28H22.62L22.25 7.93L20.77 9.72L20.24 10.19L20.99 10.11H22.56V8.08ZM25.9975 12.1C26.1642 12.16 26.3408 12.2067 26.5275 12.24C26.7208 12.2733 26.9642 12.29 27.2575 12.29C27.7575 12.29 28.1675 12.17 28.4875 11.93C28.8075 11.6833 28.9675 11.3233 28.9675 10.85C28.9675 10.39 28.8042 10.0467 28.4775 9.82C28.1575 9.58667 27.7108 9.47 27.1375 9.47L26.2275 9.51V6H29.6975V6.88H27.1075V8.69L27.5775 8.67C27.9375 8.67 28.2608 8.72 28.5475 8.82C28.8342 8.92 29.0775 9.06 29.2775 9.24C29.4842 9.42 29.6408 9.64333 29.7475 9.91C29.8608 10.17 29.9175 10.4667 29.9175 10.8C29.9175 11.18 29.8475 11.5167 29.7075 11.81C29.5675 12.0967 29.3742 12.34 29.1275 12.54C28.8875 12.7333 28.6042 12.88 28.2775 12.98C27.9508 13.08 27.6008 13.13 27.2275 13.13C26.9075 13.13 26.6275 13.11 26.3875 13.07C26.1542 13.03 25.9375 12.9733 25.7375 12.9L25.9975 12.1ZM36.275 10.88C36.275 11.1733 36.2217 11.4567 36.115 11.73C36.0083 11.9967 35.855 12.2367 35.655 12.45C35.455 12.6567 35.2083 12.8233 34.915 12.95C34.6217 13.07 34.2883 13.13 33.915 13.13C33.555 13.13 33.225 13.0733 32.925 12.96C32.6317 12.8467 32.3783 12.6833 32.165 12.47C31.9517 12.2567 31.785 11.9933 31.665 11.68C31.5517 11.3667 31.495 11.01 31.495 10.61C31.495 9.97 31.5883 9.37667 31.775 8.83C31.9617 8.27667 32.2183 7.79 32.545 7.37C32.8783 6.95 33.2683 6.61 33.715 6.35C34.1683 6.09 34.6617 5.93 35.195 5.87L35.385 6.63C34.985 6.68333 34.6183 6.80333 34.285 6.99C33.9583 7.17 33.6683 7.39333 33.415 7.66C33.1683 7.92 32.965 8.21333 32.805 8.54C32.645 8.86 32.5383 9.18667 32.485 9.52C32.545 9.43333 32.6217 9.34667 32.715 9.26C32.815 9.17333 32.9317 9.09667 33.065 9.03C33.1983 8.96333 33.3483 8.91 33.515 8.87C33.6817 8.83 33.8617 8.81 34.055 8.81C34.395 8.81 34.7017 8.86 34.975 8.96C35.255 9.05333 35.4883 9.19 35.675 9.37C35.8683 9.55 36.015 9.76667 36.115 10.02C36.2217 10.2733 36.275 10.56 36.275 10.88ZM35.325 10.95C35.325 10.51 35.2017 10.1767 34.955 9.95C34.715 9.72333 34.3517 9.61 33.865 9.61C33.5117 9.61 33.2083 9.68667 32.955 9.84C32.7083 9.99333 32.535 10.1667 32.435 10.36C32.4217 10.4467 32.415 10.5167 32.415 10.57C32.415 10.6167 32.415 10.6733 32.415 10.74C32.415 10.9333 32.445 11.1267 32.505 11.32C32.565 11.5067 32.6583 11.6767 32.785 11.83C32.9117 11.9767 33.0683 12.0967 33.255 12.19C33.4483 12.2833 33.6717 12.33 33.925 12.33C34.1317 12.33 34.3183 12.2933 34.485 12.22C34.6583 12.1467 34.805 12.0467 34.925 11.92C35.0517 11.7933 35.1483 11.6467 35.215 11.48C35.2883 11.3133 35.325 11.1367 35.325 10.95ZM37.9625 13L40.6625 7.27L41.1425 6.78L40.4925 6.88H37.4325V6H42.0725V6.29L38.9225 13H37.9625Z" fill="white"/>
<path d="M106.5 8.125C106.5 7.23438 106.195 6.4375 105.586 5.6875C104.977 4.9375 104.156 4.35156 103.125 3.90625C102.094 3.48438 100.969 3.25 99.75 3.25C98.5312 3.25 97.4062 3.48438 96.375 3.90625C95.3438 4.35156 94.5234 4.9375 93.9141 5.6875C93.3047 6.4375 93 7.23438 93 8.125C93 8.6875 93.1172 9.20312 93.3516 9.69531C93.5859 10.2109 93.9375 10.6562 94.3828 11.0781C94.2891 11.6406 94.125 12.1094 93.9375 12.4609C93.7969 12.6719 93.6094 12.9062 93.3281 13.1406L93.1406 13.3047C93.0234 13.4219 92.9766 13.5156 93 13.5625C93 13.6328 93.0469 13.6797 93.0938 13.7031C93.1406 13.75 93.2109 13.75 93.2812 13.75C94.5469 13.6328 95.6484 13.1875 96.6094 12.4375C97.5938 12.8125 98.625 13 99.75 13C100.969 13 102.094 12.7891 103.125 12.3438C104.156 11.9219 104.977 11.3359 105.586 10.5859C106.195 9.83594 106.5 9.01562 106.5 8.125Z" fill="white"/>
<path d="M117.76 9.89H116.48V12H115.56V9.89H112.19V9.47L115.81 4.9H116.48V9.11H117.76V9.89ZM115.56 7.08L115.65 6.28H115.62L115.25 6.93L113.77 8.72L113.24 9.19L113.99 9.11H115.56V7.08ZM118.998 11.1C119.164 11.16 119.341 11.2067 119.528 11.24C119.721 11.2733 119.964 11.29 120.258 11.29C120.758 11.29 121.168 11.17 121.488 10.93C121.808 10.6833 121.968 10.3233 121.968 9.85C121.968 9.39 121.804 9.04667 121.478 8.82C121.158 8.58667 120.711 8.47 120.138 8.47L119.228 8.51V5H122.698V5.88H120.108V7.69L120.577 7.67C120.938 7.67 121.261 7.72 121.548 7.82C121.834 7.92 122.078 8.06 122.278 8.24C122.484 8.42 122.641 8.64333 122.748 8.91C122.861 9.17 122.918 9.46667 122.918 9.8C122.918 10.18 122.848 10.5167 122.708 10.81C122.568 11.0967 122.374 11.34 122.128 11.54C121.888 11.7333 121.604 11.88 121.278 11.98C120.951 12.08 120.601 12.13 120.228 12.13C119.908 12.13 119.628 12.11 119.388 12.07C119.154 12.03 118.938 11.9733 118.738 11.9L118.998 11.1Z" fill="white"/>
<path d="M156.4 9.88C156.4 10.1733 156.347 10.4567 156.24 10.73C156.133 10.9967 155.98 11.2367 155.78 11.45C155.58 11.6567 155.333 11.8233 155.04 11.95C154.747 12.07 154.413 12.13 154.04 12.13C153.68 12.13 153.35 12.0733 153.05 11.96C152.757 11.8467 152.503 11.6833 152.29 11.47C152.077 11.2567 151.91 10.9933 151.79 10.68C151.677 10.3667 151.62 10.01 151.62 9.61C151.62 8.97 151.713 8.37667 151.9 7.83C152.087 7.27667 152.343 6.79 152.67 6.37C153.003 5.95 153.393 5.61 153.84 5.35C154.293 5.09 154.787 4.93 155.32 4.87L155.51 5.63C155.11 5.68333 154.743 5.80333 154.41 5.99C154.083 6.17 153.793 6.39333 153.54 6.66C153.293 6.92 153.09 7.21333 152.93 7.54C152.77 7.86 152.663 8.18667 152.61 8.52C152.67 8.43333 152.747 8.34667 152.84 8.26C152.94 8.17333 153.057 8.09667 153.19 8.03C153.323 7.96333 153.473 7.91 153.64 7.87C153.807 7.83 153.987 7.81 154.18 7.81C154.52 7.81 154.827 7.86 155.1 7.96C155.38 8.05333 155.613 8.19 155.8 8.37C155.993 8.55 156.14 8.76667 156.24 9.02C156.347 9.27333 156.4 9.56 156.4 9.88ZM155.45 9.95C155.45 9.51 155.327 9.17667 155.08 8.95C154.84 8.72333 154.477 8.61 153.99 8.61C153.637 8.61 153.333 8.68667 153.08 8.84C152.833 8.99333 152.66 9.16667 152.56 9.36C152.547 9.44667 152.54 9.51667 152.54 9.57C152.54 9.61667 152.54 9.67333 152.54 9.74C152.54 9.93333 152.57 10.1267 152.63 10.32C152.69 10.5067 152.783 10.6767 152.91 10.83C153.037 10.9767 153.193 11.0967 153.38 11.19C153.573 11.2833 153.797 11.33 154.05 11.33C154.257 11.33 154.443 11.2933 154.61 11.22C154.783 11.1467 154.93 11.0467 155.05 10.92C155.177 10.7933 155.273 10.6467 155.34 10.48C155.413 10.3133 155.45 10.1367 155.45 9.95ZM158.088 12L160.788 6.27L161.268 5.78L160.618 5.88H157.558V5H162.198V5.29L159.048 12H158.088ZM165.045 8.4C164.865 8.3 164.695 8.19667 164.535 8.09C164.382 7.97667 164.245 7.85 164.125 7.71C164.012 7.57 163.922 7.41333 163.855 7.24C163.788 7.06667 163.755 6.87 163.755 6.65C163.755 6.39667 163.805 6.16333 163.905 5.95C164.005 5.73 164.148 5.54 164.335 5.38C164.522 5.22 164.748 5.09667 165.015 5.01C165.282 4.91667 165.582 4.87 165.915 4.87C166.222 4.87 166.498 4.91 166.745 4.99C166.998 5.07 167.212 5.18333 167.385 5.33C167.565 5.47667 167.702 5.65 167.795 5.85C167.895 6.04333 167.945 6.25667 167.945 6.49C167.945 6.87 167.852 7.20333 167.665 7.49C167.478 7.77667 167.168 8.05333 166.735 8.32C166.928 8.42667 167.108 8.54 167.275 8.66C167.448 8.77333 167.595 8.90333 167.715 9.05C167.842 9.19667 167.938 9.36 168.005 9.54C168.078 9.72 168.115 9.92333 168.115 10.15C168.115 10.4367 168.062 10.7 167.955 10.94C167.855 11.18 167.705 11.39 167.505 11.57C167.305 11.7433 167.058 11.88 166.765 11.98C166.478 12.08 166.152 12.13 165.785 12.13C165.432 12.13 165.118 12.0833 164.845 11.99C164.578 11.89 164.348 11.76 164.155 11.6C163.968 11.4333 163.825 11.24 163.725 11.02C163.632 10.7933 163.585 10.5533 163.585 10.3C163.585 9.88 163.705 9.52 163.945 9.22C164.185 8.92 164.552 8.64667 165.045 8.4ZM165.665 8.71C165.238 8.92333 164.935 9.16333 164.755 9.43C164.575 9.69 164.485 9.93667 164.485 10.17C164.485 10.3233 164.515 10.47 164.575 10.61C164.635 10.75 164.722 10.8733 164.835 10.98C164.948 11.0867 165.088 11.1733 165.255 11.24C165.422 11.3 165.615 11.33 165.835 11.33C166.015 11.33 166.188 11.3067 166.355 11.26C166.522 11.2067 166.665 11.1333 166.785 11.04C166.912 10.9467 167.012 10.83 167.085 10.69C167.158 10.5433 167.195 10.3767 167.195 10.19C167.195 10.01 167.152 9.85 167.065 9.71C166.978 9.56333 166.862 9.43333 166.715 9.32C166.575 9.2 166.412 9.09333 166.225 9C166.045 8.9 165.858 8.80333 165.665 8.71ZM166.115 8.05C166.422 7.83 166.652 7.61 166.805 7.39C166.958 7.17 167.035 6.93333 167.035 6.68C167.035 6.52 167.002 6.38 166.935 6.26C166.875 6.13333 166.792 6.02667 166.685 5.94C166.585 5.85333 166.465 5.78667 166.325 5.74C166.185 5.69333 166.038 5.67 165.885 5.67C165.692 5.67 165.522 5.7 165.375 5.76C165.228 5.81333 165.102 5.88667 164.995 5.98C164.895 6.06667 164.818 6.16667 164.765 6.28C164.712 6.39333 164.685 6.51 164.685 6.63C164.685 6.81 164.725 6.97 164.805 7.11C164.885 7.25 164.988 7.37667 165.115 7.49C165.248 7.59667 165.402 7.69667 165.575 7.79C165.748 7.87667 165.928 7.96333 166.115 8.05Z" fill="white"/>
<path d="M146 8.00747L141.013 2.52832V5.79728H139.953C136.665 5.79728 134 8.46759 134 11.7617V13.494L134.471 12.977C136.072 11.2192 138.338 10.2177 140.713 10.2177H141.013V13.4866L146 8.00747Z" fill="white"/>
<path d="M72.13 12.16H73.65V7.51L73.77 6.9L73.33 7.4L72.14 8.2L71.72 7.61L74.13 5.88H74.57V12.16H76.07V13H72.13V12.16ZM81.8275 7.64C81.8275 7.98 81.7575 8.33 81.6175 8.69C81.4775 9.04333 81.2942 9.39667 81.0675 9.75C80.8475 10.1033 80.5975 10.4533 80.3175 10.8C80.0442 11.1467 79.7675 11.48 79.4875 11.8L78.9475 12.23V12.27L79.6675 12.16H81.9975V13H77.5875V12.64C77.7475 12.4867 77.9375 12.3 78.1575 12.08C78.3842 11.8533 78.6175 11.6067 78.8575 11.34C79.1042 11.0667 79.3442 10.78 79.5775 10.48C79.8175 10.18 80.0308 9.87667 80.2175 9.57C80.4042 9.25667 80.5542 8.95 80.6675 8.65C80.7875 8.35 80.8475 8.06667 80.8475 7.8C80.8475 7.48667 80.7508 7.22667 80.5575 7.02C80.3642 6.81333 80.0675 6.71 79.6675 6.71C79.3875 6.71 79.1175 6.76333 78.8575 6.87C78.5975 6.97667 78.3742 7.10667 78.1875 7.26L77.7775 6.59C78.0508 6.37 78.3608 6.19667 78.7075 6.07C79.0542 5.93667 79.4375 5.87 79.8575 5.87C80.4775 5.87 80.9608 6.03333 81.3075 6.36C81.6542 6.68 81.8275 7.10667 81.8275 7.64Z" fill="white"/>
<g clip-path="url(#clip0)">
<path d="M65.9815 6.21162C65.9534 6.13693 65.8952 6.07744 65.8212 6.04755L64.5772 5.54565C64.4999 5.14377 64.1946 4.8219 63.8018 4.72043L63.7347 3.94741C63.7249 3.83429 63.649 3.73774 63.5414 3.70147C63.4338 3.66524 63.3149 3.69617 63.2387 3.78029L62.9194 4.13246L62.722 3.44183C62.688 3.32278 62.5812 3.23921 62.4574 3.23492C62.3329 3.23051 62.2212 3.30657 62.179 3.42302L60.7046 7.49058C60.7046 7.49058 55.2431 7.74552 55.2408 7.74565C54.1209 7.81295 53.0599 7.2137 52.5385 6.21886C52.4652 6.07919 52.2926 6.02525 52.153 6.09848C52.0133 6.17171 51.9594 6.34429 52.0326 6.48396C52.4987 7.37334 53.3243 7.99904 54.2709 8.22686C54.1726 8.34137 53.9615 8.62519 53.838 9.0714C53.7038 9.55658 53.6554 10.33 54.149 11.3121L53.3484 12.3995C53.3016 12.463 53.2832 12.5431 53.2975 12.6206L53.6499 14.5313C53.6748 14.6667 53.793 14.7651 53.9307 14.7651H54.2896C54.3743 14.7651 54.4546 14.7275 54.5089 14.6625C54.5632 14.5974 54.5858 14.5117 54.5706 14.4284L54.3475 13.2028L56.7082 11.4306C56.7123 11.4274 56.7042 11.434 56.7082 11.4306C56.9339 11.241 57.0978 11.0322 57.215 10.8175C58.4453 11.0335 60.1291 11.3258 61.2083 11.4996L61.6838 14.5239C61.7057 14.6628 61.8254 14.7651 61.966 14.7651H62.2613C62.419 14.7651 62.5469 14.6373 62.5469 14.4795V11.4096C62.8149 11.2265 62.9108 10.9203 62.9743 10.6204C62.9763 10.611 63.6096 7.68812 63.6096 7.68812C63.729 7.70802 63.8495 7.71846 63.9709 7.71846C64.8072 7.71846 65.573 7.22884 65.9695 6.44068C66.0053 6.36941 66.0097 6.28635 65.9815 6.21162Z" fill="white"/>
</g>
<defs>
<clipPath id="clip0">
<rect width="14" height="14" fill="white" transform="translate(52 2)"/>
</clipPath>
</defs>
</svg>
