<svg width="15" height="11" viewBox="0 0 15 11" fill="none" xmlns="http://www.w3.org/2000/svg">
<path d="M14.5 5.22632C14.5 4.33569 14.1953 3.53882 13.5859 2.78882C12.9766 2.03882 12.1562 1.45288 11.125 1.00757C10.0938 0.585693 8.96875 0.351318 7.75 0.351318C6.53125 0.351318 5.40625 0.585693 4.375 1.00757C3.34375 1.45288 2.52344 2.03882 1.91406 2.78882C1.30469 3.53882 1 4.33569 1 5.22632C1 5.78882 1.11719 6.30444 1.35156 6.79663C1.58594 7.31226 1.9375 7.75757 2.38281 8.17944C2.28906 8.74194 2.125 9.21069 1.9375 9.56226C1.79688 9.77319 1.60938 10.0076 1.32812 10.2419L1.14062 10.406C1.02344 10.5232 0.976562 10.6169 1 10.6638C1 10.7341 1.04688 10.781 1.09375 10.8044C1.14062 10.8513 1.21094 10.8513 1.28125 10.8513C2.54688 10.7341 3.64844 10.2888 4.60938 9.53882C5.59375 9.91382 6.625 10.1013 7.75 10.1013C8.96875 10.1013 10.0938 9.89038 11.125 9.44507C12.1562 9.02319 12.9766 8.43726 13.5859 7.68726C14.1953 6.93726 14.5 6.11694 14.5 5.22632Z" fill="white"/>
</svg>
